<svg width="25" height="24" viewBox="0 0 25 24" fill="none" xmlns="http://www.w3.org/2000/svg">
<g clip-path="url(#clip0_4568_18126)">
<g clip-path="url(#clip1_4568_18126)">
<path d="M11.5751 23.5158C4.76422 13.6421 3.5 12.6287 3.5 9C3.5 4.02942 7.52942 0 12.5 0C17.4706 0 21.5 4.02942 21.5 9C21.5 12.6287 20.2358 13.6421 13.4249 23.5158C12.978 24.1614 12.022 24.1614 11.5751 23.5158ZM12.5 12.75C14.5711 12.75 16.25 11.0711 16.25 9C16.25 6.92892 14.5711 5.25 12.5 5.25C10.4289 5.25 8.75 6.92892 8.75 9C8.75 11.0711 10.4289 12.75 12.5 12.75Z" fill="black" fill-opacity="0.3"/>
</g>
</g>
<defs>
<clipPath id="clip0_4568_18126">
<rect width="24" height="24" fill="white" transform="translate(0.5)"/>
</clipPath>
<clipPath id="clip1_4568_18126">
<rect width="24" height="24" fill="white" transform="translate(0.5)"/>
</clipPath>
</defs>
</svg>
